<?xml version="1.0" encoding="UTF-8"?>
<svg id="Logo" xmlns="http://www.w3.org/2000/svg" version="1.1" viewBox="0 0 291.5 159.5">
  <defs>
    <style>
      .cls-1 {
        fill: #012e1d;
        stroke-width: 0px;
      }
    </style>
  </defs>
  <path class="cls-1" d="M18.7,1h7.8l18.3,48.5h-7.6l-5.3-15H12.9l-5.3,15H0L18.7,1ZM29.8,28.6l-7.3-20.9-7.4,20.9h14.8-.1Z"/>
  <path class="cls-1" d="M149.1,55.5c8.7,0,13.6,6,13.7,14.4,0,6.1-3.6,11.1-9.3,13.2l12.2,20.9h-7.4l-11.3-20.1h-11.8v20.1h-6.5v-48.5h20.5,0ZM147.6,78c4.5,0,8.6-3.2,8.6-8.1s-2.3-8.4-7.3-8.4h-13.8v16.5h12.5Z"/>
  <path class="cls-1" d="M74.7,110h7.3l8.4,41.3,10.2-41.3h8.8l10.4,42.8,8.1-42.8h7.2l-9.9,48.5h-10.4l-9.8-39.6-9.9,39.6h-9.6l-10.7-48.5h-.1Z"/>
</svg>