<?xml version="1.0" encoding="UTF-8"?>
<svg id="Logo" xmlns="http://www.w3.org/2000/svg" version="1.1" viewBox="0 0 291.5 159.5">
  <defs>
    <style>
      .cls-1 {
        fill: #012e1d;
        stroke-width: 0px;
      }
    </style>
  </defs>
  <path class="cls-1" d="M18.7,1h7.8l18.3,48.5h-7.6l-5.3-15H12.9l-5.3,15H0L18.7,1ZM29.8,28.6l-7.3-20.9-7.4,20.9h14.8-.1Z"/>
  <path class="cls-1" d="M47.9,0h6.4v29.6l14.9-15.5h8.5l-14,13.8,15.4,21.6h-8.2l-12-17-4.6,4.5v12.5h-6.4s0-49.5,0-49.5Z"/>
  <path class="cls-1" d="M103.3,44.3c-2.4,3.6-7.3,6.1-12,6.1-6.7,0-10.8-4.3-10.8-9.4s4.4-9,8.9-10l6.8-1.5c5.6-1.2,6.9-1.7,6.9-5.1s-2.1-5.6-7.3-5.6-8.1,4.1-8.1,8.1h-7c.3-8.8,7.3-13.8,15-13.8s13.8,3.1,13.8,10.9v17c0,1.6.6,3.4,2,3.4h.7v5.1h-2.6c-3.6,0-5.6-2.7-6.3-5.1h0ZM92.2,44.8c6.6,0,9.6-3.6,10.9-6.2v-6.1c-2.4,1-4.6,1.6-7,2.1l-4.8,1.2c-2.7.6-4.1,2.4-4.1,4.6s2.9,4.4,5.1,4.4h0Z"/>
  <path class="cls-1" d="M114.6,31.9c0-10.6,5.9-18.7,16.3-18.7s9,3.1,10.6,5.3V0h6.4v49.5h-6.3v-5c-.7,1.6-4.2,6-11.3,6s-15.7-8.1-15.7-18.6ZM131.8,44.3c6.3,0,10.8-4.6,10.8-12.5s-4.4-12.4-10.8-12.4-10.8,4.4-10.8,12.4,4.3,12.5,10.8,12.5Z"/>
  <path class="cls-1" d="M152.2,31.4c0-10.6,7.4-18.2,16-18.2s16.5,5.3,16.8,18v2.4h-26.4c.5,8,5.8,11,11,11s7.3-2.1,8-5.1h6.7c-.9,4.2-3.8,11-15,11s-17-5.9-17-19h-.1ZM178.2,28.3c-.1-6.6-4.4-9.3-9.9-9.3s-9.1,3.2-9.6,9.3h19.5Z"/>
  <path class="cls-1" d="M189.6,14.1h6.4v5.5c1.4-2.4,6-6.5,10.7-6.5s9.1,2.2,11,7.3c1.6-3.2,6.2-7.3,11.5-7.3s11.9,3.6,11.9,12.3v24.1h-6.4v-23c0-4.8-1.9-7.6-6.5-7.6s-9.7,2.4-9.7,9.7v20.8h-6.4v-23c0-4.8-1.9-7.6-6.5-7.6s-9.7,2.4-9.7,9.7v20.8h-6.4V14.1h0Z"/>
  <path class="cls-1" d="M246.9,0h7.3v7.4h-7.3V0ZM253.9,14v35.4h-6.6V14h6.6Z"/>
  <path class="cls-1" d="M258.6,31.4c0-10.6,7.4-18.2,16-18.2s16.5,5.3,16.8,18v2.4h-26.4c.5,8,5.8,11,11,11s7.3-2.1,8-5.1h6.7c-.9,4.2-3.8,11-15,11s-17-5.9-17-19h-.1ZM284.5,28.3c-.1-6.6-4.4-9.3-9.9-9.3s-9.1,3.2-9.6,9.3h19.5Z"/>
  <path class="cls-1" d="M149.1,55.5c8.7,0,13.6,6,13.7,14.4,0,6.1-3.6,11.1-9.3,13.2l12.2,20.9h-7.4l-11.3-20.1h-11.8v20.1h-6.5v-48.5h20.5,0ZM147.6,78c4.5,0,8.6-3.2,8.6-8.1s-2.3-8.4-7.3-8.4h-13.8v16.5h12.5Z"/>
  <path class="cls-1" d="M190.1,98.9c-2.4,3.6-7.3,6.1-12,6.1-6.7,0-10.8-4.3-10.8-9.4s4.4-9,8.9-10l6.8-1.5c5.6-1.2,6.9-1.7,6.9-5.1s-2.1-5.6-7.3-5.6-8.1,4.1-8.1,8.1h-7c.3-8.8,7.3-13.8,15-13.8s13.8,3.1,13.8,10.9v17c0,1.6.6,3.4,2,3.4h.7v5.1h-2.6c-3.6,0-5.6-2.7-6.3-5.1h0ZM179,99.3c6.6,0,9.6-3.6,10.9-6.2v-6.1c-2.4,1-4.6,1.6-7,2.1l-4.8,1.2c-2.7.6-4.1,2.4-4.1,4.6s2.9,4.4,5.1,4.4h0Z"/>
  <path class="cls-1" d="M202,91.9v-23.4h6.4v22.2c0,5.5,2.5,8.3,7.8,8.3s9.8-2.4,9.8-9.7v-20.8h6.4v35.4h-6.4v-5.5c-1.5,2.4-5.4,6.5-10.8,6.5s-13.2-3.6-13.2-13Z"/>
  <path class="cls-1" d="M237.8,68.6h6.4v5.5c1.4-2.4,6-6.5,10.7-6.5s9.1,2.2,11,7.3c1.6-3.2,6.2-7.3,11.5-7.3s11.9,3.6,11.9,12.3v24.1h-6.4v-23c0-4.8-1.9-7.6-6.5-7.6s-9.7,2.4-9.7,9.7v20.8h-6.4v-23c0-4.8-1.9-7.6-6.5-7.6s-9.7,2.4-9.7,9.7v20.8h-6.4v-35.4.2Z"/>
  <path class="cls-1" d="M74.7,110h7.3l8.4,41.3,10.2-41.3h8.8l10.4,42.8,8.1-42.8h7.2l-9.9,48.5h-10.4l-9.8-39.6-9.9,39.6h-9.6l-10.7-48.5h-.1Z"/>
  <path class="cls-1" d="M158,153.4c-2.4,3.6-7.3,6.1-12,6.1-6.7,0-10.8-4.3-10.8-9.4s4.4-9,8.9-10l6.8-1.5c5.6-1.2,6.9-1.7,6.9-5.1s-2.1-5.6-7.3-5.6-8.1,4.1-8.1,8.1h-7c.3-8.8,7.3-13.8,15-13.8s13.8,3.1,13.8,10.9v17c0,1.6.6,3.4,2,3.4h.7v5.1h-2.6c-3.6,0-5.6-2.7-6.3-5.1h0ZM146.9,153.8c6.6,0,9.6-3.6,10.9-6.2v-6.1c-2.4,1-4.6,1.6-7,2.1l-4.8,1.2c-2.7.6-4.1,2.4-4.1,4.6s2.9,4.4,5.1,4.4h0Z"/>
  <path class="cls-1" d="M171.8,123.1h6.6v5.5c1.5-2.4,6.2-6.5,11.7-6.5s13,3.6,13,12.3v24.1h-6.6v-23c0-4.8-2-7.6-7.4-7.6s-10.7,2.4-10.7,9.7v20.8h-6.6v-35.4h0Z"/>
  <g>
    <path class="cls-1" d="M207.8,140.8c0-10.6,5.9-18.7,16.3-18.7s9,3.1,10.6,5.3v-18.4h6.4v49.5h-6.3v-5c-.7,1.6-4.2,6-11.3,6s-15.7-8.1-15.7-18.6h0ZM224.9,153.2c6.3,0,10.8-4.6,10.8-12.5s-4.4-12.4-10.8-12.4-10.8,4.4-10.8,12.4,4.3,12.5,10.8,12.5Z"/>
    <path class="cls-1" d="M246,140.4c0-10.6,7.4-18.2,16-18.2s16.5,5.3,16.8,18v2.4h-26.4c.5,8,5.8,11,11,11s7.3-2.1,8-5.1h6.7c-.9,4.2-3.8,11-15,11s-17-5.9-17-19h-.1ZM271.9,137.3c-.1-6.6-4.4-9.3-9.9-9.3s-9.1,3.2-9.6,9.3h19.5Z"/>
    <path class="cls-1" d="M289.4,109v49.5h-6.4v-49.5h6.4Z"/>
  </g>
</svg>