<?xml version="1.0" standalone="no"?>
<!DOCTYPE svg PUBLIC "-//W3C//DTD SVG 20010904//EN"
 "http://www.w3.org/TR/2001/REC-SVG-20010904/DTD/svg10.dtd">
<svg version="1.0" xmlns="http://www.w3.org/2000/svg"
 width="256.000000pt" height="256.000000pt" viewBox="0 0 256.000000 256.000000"
 preserveAspectRatio="xMidYMid meet">
<metadata>
Created by potrace 1.14, written by Peter Selinger 2001-2017
</metadata>
<g transform="translate(0.000000,256.000000) scale(0.100000,-0.100000)"
fill="#000000" stroke="none">
<path d="M287 2478 c-44 -112 -277 -722 -277 -727 0 -8 108 -7 114 0 2 2 21
54 42 114 l39 110 143 1 c165 1 145 14 193 -127 18 -52 33 -96 35 -98 2 -2 29
-4 59 -5 52 -2 56 0 51 19 -3 11 -65 179 -138 373 l-133 352 -61 0 c-40 0 -64
-4 -67 -12z m125 -261 c26 -76 48 -141 48 -143 0 -2 -50 -4 -111 -4 -102 0
-111 1 -104 18 4 9 27 73 51 142 59 168 55 158 62 140 3 -8 27 -77 54 -153z"/>
<path d="M2009 1650 l-24 -5 0 -367 c0 -242 3 -368 10 -369 60 -4 85 -2 86 6
1 6 2 75 3 155 l1 145 89 0 89 0 84 -145 c45 -80 84 -149 86 -153 3 -9 105
-16 112 -8 5 5 -28 66 -113 209 -34 57 -62 105 -62 107 0 2 20 15 44 29 134
79 125 305 -16 377 -36 18 -60 21 -202 22 -89 1 -173 0 -187 -3z m335 -100
c64 -24 85 -142 36 -196 -14 -14 -35 -30 -47 -35 -20 -7 -142 -13 -223 -10
l-26 1 2 123 c1 67 2 123 3 125 3 7 234 0 255 -8z"/>
<path d="M1165 771 c3 -25 15 -82 25 -126 11 -44 40 -174 65 -290 25 -116 50
-227 56 -247 l10 -38 74 0 c69 0 75 2 80 22 3 13 37 147 74 298 38 151 71 268
75 260 3 -8 33 -125 66 -260 34 -135 65 -262 71 -283 l10 -38 81 3 c63 2 82 6
83 18 2 8 17 82 34 163 35 163 61 291 66 322 1 11 12 65 24 119 12 55 20 105
17 111 -3 10 -58 13 -97 6 -7 -1 -17 -49 -59 -271 -41 -221 -70 -363 -73 -366
-1 -2 -31 115 -66 259 -34 144 -70 289 -79 322 l-17 59 -57 1 c-32 1 -62 -1
-68 -5 -6 -3 -42 -134 -80 -291 -39 -156 -73 -295 -77 -309 -7 -29 -8 -28 -83
345 -28 137 -53 252 -56 254 -2 2 -27 5 -55 6 l-51 2 7 -46z"/>
</g>
</svg>
